<svg id="Layer_1" data-name="Layer 1" xmlns="http://www.w3.org/2000/svg" viewBox="0 0 317.46 82.12"><defs><style>.cls-1{fill:#fff;}.cls-2{fill:#fcc625;}.cls-3{fill:#f4f5f5;}.cls-4{fill:#de9d26;}.cls-5{fill:#2f3336;}.cls-6{fill:#d8d9da;}.cls-7{fill:#6f7071;}</style></defs><title>tux4ubuntu-logo</title><path class="cls-1" d="M217.9,28.75l.27-.73a.15.15,0,0,0,.11-.05.3.3,0,0,1,.11,0h.78a29.69,29.69,0,0,0,3.31,0h.22a1,1,0,0,1,.25,0l.22,0a.85.85,0,0,1,.24.08.73.73,0,0,1,.19.17,14.69,14.69,0,0,0-.1,1.92c0,.85,0,1.34,0,1.46,0,.73-.05,1.83-.05,3.31a1.7,1.7,0,0,1-.18,1l.1.3a1.14,1.14,0,0,1,.08.34c0,.23,0,.55,0,1s0,.74,0,.95,0,.46.11.9a8,8,0,0,1,.09,1c0,.76,0,1.89,0,3.4,0,.72,0,1.36,0,1.93s0,1.21,0,1.93.06,1.37.12,1.93c-.06.07-.06.28,0,.62a5.67,5.67,0,0,1,.09.62c0,.11,0,.26,0,.45s0,.34,0,.46a3.4,3.4,0,0,1,0,.42,1.5,1.5,0,0,1-.09.45,4.84,4.84,0,0,0-.09,1.09v7.43a1.59,1.59,0,0,0,.32,1.09,2.55,2.55,0,0,0,.82.35,12.72,12.72,0,0,0,1.36,0,4.94,4.94,0,0,0,1.51-.78,4.18,4.18,0,0,0-.09-1.58,3.3,3.3,0,0,1,0-1.56c0-.13,0-.27.06-.42s0-.31,0-.5a2.39,2.39,0,0,1,0-.43s-.05-.45-.13-1.25a4.85,4.85,0,0,1,0-1.53,3.93,3.93,0,0,0,.09-1v-.78a2.43,2.43,0,0,0-.06-.79,1.61,1.61,0,0,1,0-.81,1.82,1.82,0,0,0,0-.74,1.53,1.53,0,0,1,0-.75c0-.46,0-1.18,0-2.15s0-1.7,0-2.19c0-.78,0-1.38-.05-1.78,0-.07,0-.19,0-.37s0-.3,0-.38a2.88,2.88,0,0,0,0-.35,1.27,1.27,0,0,0-.12-.39,2,2,0,0,1,0-.58,1.5,1.5,0,0,0,0-.57,1.38,1.38,0,0,0,0-.63,1,1,0,0,1,0-.6c.07,0,.11-.22.1-.54s0-.5,0-.55,0-.22,0-.39a3.91,3.91,0,0,1,0-.45,1.52,1.52,0,0,1,.05-.38.61.61,0,0,0,0-.38,3.89,3.89,0,0,1-.13-.68c0-.23-.05-.48-.06-.77s0-.5,0-.66,0-.42,0-.76,0-.57,0-.69,0-.43,0-.77,0-.6,0-.8,0-.44,0-.73a6,6,0,0,1,.08-.79,4.06,4.06,0,0,0-.06-1,6.58,6.58,0,0,1-.11-.79,1.34,1.34,0,0,1,1-.49c.22,0,.54,0,.94,0l.89,0a3.42,3.42,0,0,0,.62,0,5.16,5.16,0,0,1,2.07.17,24.9,24.9,0,0,1,.14,3.66A18.3,18.3,0,0,1,233,35a6.64,6.64,0,0,1,.15.91c0,.31,0,.69.06,1.13s0,.75,0,.92v4.47a19,19,0,0,1,.22,4.33c0,.45,0,1.11,0,2s0,1.53,0,2c0,0,0,.14,0,.27s0,.24,0,.31a1.39,1.39,0,0,1,0,.27,1,1,0,0,1-.12.29v.22a12.4,12.4,0,0,1,.17,1.47c0,.53,0,1,0,1.45s0,.9,0,1.42v4.23c0,.08,0,.21,0,.38s0,.31,0,.39a5.68,5.68,0,0,1-.64,3.1,2.65,2.65,0,0,1-.22.26c-.14.15-.24.28-.32.38a6.64,6.64,0,0,1-4.2,2.23l-.62.1-.78.14a2.54,2.54,0,0,1-.87,0,15.74,15.74,0,0,1-4.56-1.16,5.55,5.55,0,0,1-2-1.66c-.08-.12-.21-.32-.36-.6a5.78,5.78,0,0,0-.37-.61,1.29,1.29,0,0,1-.22-.71,3.16,3.16,0,0,0-.09-.6,1.68,1.68,0,0,0,0-1.07,3.88,3.88,0,0,1-.09-1.06,4.13,4.13,0,0,0,0-.63c0-.22,0-.47,0-.76s0-.51,0-.66a4.44,4.44,0,0,1,.14-1.11,2.32,2.32,0,0,0,0-.54,4.67,4.67,0,0,1-.05-.51,2.5,2.5,0,0,1,.09-.71s0-.12-.07-.32a2.72,2.72,0,0,1-.07-.46c0-1.18,0-2.08,0-2.69v-.51a7.5,7.5,0,0,0,.18-1.39,6.87,6.87,0,0,0-.18-1.35,2.16,2.16,0,0,1,.09-1,1.54,1.54,0,0,0-.06-.46,2,2,0,0,1-.08-.41V39.36c0-.08,0-.37.06-.85a2.76,2.76,0,0,0,0-.88V35.94a2.58,2.58,0,0,1,.09-.87.9.9,0,0,0,0-.73,5.83,5.83,0,0,1-.15-1.49c0-.64,0-1,0-1.18V30.11A3.17,3.17,0,0,0,217.9,28.75Z" transform="translate(-8.74 -1.63)"/><path class="cls-1" d="M237.1,42.68A1.18,1.18,0,0,1,237,42c0-1.63,0-2.61-.05-2.93-.09-1.19-.1-3,0-5.37,0-.31,0-.77,0-1.38s.05-1,.05-1.35a17.11,17.11,0,0,0-.18-2.87,2.68,2.68,0,0,1,.4-.22,20.68,20.68,0,0,0,2.87.13h1.44a1,1,0,0,1,.6.13,1.14,1.14,0,0,0,.47.05h3.32a5.18,5.18,0,0,1,3,.91l.42.26a3.89,3.89,0,0,1,.55.38,1.4,1.4,0,0,1,.3.4s.16.26.42.69a3.71,3.71,0,0,1,.49,1.05c.06.25.18.64.35,1.16s.28.92.34,1.2l.09.69a1.44,1.44,0,0,0,.09.6,1.52,1.52,0,0,1,.12.43,1.93,1.93,0,0,1,0,.4,3.2,3.2,0,0,1,0,.45,2.93,2.93,0,0,0-.05.41c0,.25,0,.6-.05,1s0,.73,0,.88,0,.41,0,.73a6.27,6.27,0,0,1,0,.84,2.34,2.34,0,0,1-.12.7,2.21,2.21,0,0,0-.09.72v.59a6,6,0,0,1-.69,2.83c-.15.25-.26.43-.33.53a2.62,2.62,0,0,1-.38.4,1.57,1.57,0,0,1-.56.36l-.36.22a3.11,3.11,0,0,1-.46.26,1.24,1.24,0,0,1-.47.1,2.28,2.28,0,0,0,.83.6,5.38,5.38,0,0,1,2.38,2,4.63,4.63,0,0,1,.49,1.82,8.21,8.21,0,0,1-.09,1.88,4.28,4.28,0,0,0,0,.78c0,.43,0,.67-.09.73a.12.12,0,0,0,0,.09,14.87,14.87,0,0,1,0,2.31,8.38,8.38,0,0,1,.08,2c0,.92-.09,1.72-.17,2.41a4.25,4.25,0,0,1-1.46,2.62L249,66.1a2.26,2.26,0,0,1-.64.3,1.51,1.51,0,0,0-.65.39A3.83,3.83,0,0,0,246,67c-.56,0-1.35,0-2.36,0s-1.75,0-2.24,0a30.47,30.47,0,0,0-4.43.17,1.8,1.8,0,0,1-.27-1.51,1.89,1.89,0,0,0,.09-.67c0-.66,0-1.61.08-2.83s.09-2,.1-2.42c.06-1.63.09-2.84.09-3.64l0-1a3.66,3.66,0,0,0,0-1c0-.49-.06-1.21-.09-2.15s-.06-1.67-.09-2.16a16,16,0,0,1,.14-2.09,2.41,2.41,0,0,0,0-.78c0-.45-.06-.72-.06-.83,0-1.27,0-2.23,0-2.86A.83.83,0,0,1,237,43,.71.71,0,0,0,237.1,42.68Zm5.38,18.86a7.92,7.92,0,0,0,1.54,0,4.15,4.15,0,0,0,1.67-.52,1.62,1.62,0,0,0,.84-1.12c0-.28.05-1.16.05-2.63t-.06-.36a2.06,2.06,0,0,1,0-.59,2.53,2.53,0,0,1,.09-.6,1.76,1.76,0,0,1,.11-.36.27.27,0,0,0,0-.17s-.05-.1-.14-.16a1,1,0,0,1-.13-.46c0-.14,0-.38.08-.71a4.07,4.07,0,0,0,.05-.79,3.45,3.45,0,0,0-.92-2.65,5.24,5.24,0,0,0-3.18,0,39.25,39.25,0,0,1,0,4.24c0,.43,0,1,.06,1.61s.05,1.35.05,2.15S242.56,60.3,242.48,61.54ZM242.75,34c0,.52.07,1.06.07,1.63s0,1.19,0,1.87,0,1.23,0,1.6a4,4,0,0,1-.13,1.42.48.48,0,0,0-.07.33c0,.12,0,.31.08.56a2.79,2.79,0,0,1,0,.62c0,1.31,0,2.09.05,2.36a3.19,3.19,0,0,1,.69-.16,4,4,0,0,1,.68,0,4.31,4.31,0,0,0,.72,0,1.65,1.65,0,0,0,1.13-.6l.74-.82c0-.14,0-.35-.08-.65a5.4,5.4,0,0,1-.06-.63c0-.13,0-.34.05-.63a2.35,2.35,0,0,0,0-1,2,2,0,0,1,0-1,15.17,15.17,0,0,1-.09-1.87V35.63a4.27,4.27,0,0,0-.2-.48,3.89,3.89,0,0,1-.2-.52A3.53,3.53,0,0,0,242.75,34Z" transform="translate(-8.74 -1.63)"/><path class="cls-1" d="M255.41,63.06a2,2,0,0,0,0-1.38,17.82,17.82,0,0,1-.09-3,16.8,16.8,0,0,0,0-2,.37.37,0,0,0-.09-.21.4.4,0,0,1-.09-.23,2.86,2.86,0,0,0,.27-1c0-.14,0-.54-.06-1.19a4.76,4.76,0,0,1,0-1.16,11.36,11.36,0,0,0,0-3c0-.35,0-.6,0-.74s0-.4,0-.77,0-.63.07-.78a14.55,14.55,0,0,0,0-3,7.22,7.22,0,0,1,.05-1.54q.07-1.2,0-3.51a4.57,4.57,0,0,1,0-.47c0-.21,0-.36,0-.44a5.62,5.62,0,0,0-.06-1.21,3,3,0,0,1,0-1.17,6.24,6.24,0,0,0,.13-2c0-.34-.05-.86-.05-1.58a11.5,11.5,0,0,1,.05-1.38,6.82,6.82,0,0,0-.13-1.64V29a2.06,2.06,0,0,1,.1-.51c.06-.25.1-.4.12-.46a.54.54,0,0,1,.55-.13,10.81,10.81,0,0,0,1.7.13c.2,0,.31,0,.31.23a.22.22,0,0,0,.13,0,.21.21,0,0,0,.08-.1l.05-.09.84.08a6.79,6.79,0,0,0,.83-.05c.43-.05.7-.07.8-.07a1.39,1.39,0,0,1,.23,1c-.05.44-.08,1.06-.11,1.87s0,1.38-.07,1.69,0,.84,0,1.31,0,1,0,1.54,0,1,0,1.29v.74c0,.28,0,.8-.06,1.58s0,1.36,0,1.78,0,1.14.09,2.06,0,2.8-.14,5.59c0,.24,0,.72,0,1.46s0,1.3-.06,1.7a14.44,14.44,0,0,0,.05,2.18,1.73,1.73,0,0,1-.05.29,1.1,1.1,0,0,0,0,.35.45.45,0,0,0,.12.27,1.31,1.31,0,0,0-.12.48c0,.17,0,.37,0,.61s0,.39,0,.47c-.05,1.57-.05,2.75,0,3.53a3.37,3.37,0,0,1,0,1.25,1.67,1.67,0,0,0,0,.38,2.75,2.75,0,0,1,0,.29,4.65,4.65,0,0,0,3.7.46l.49-.51c0-.16,0-.62,0-1.37s0-1.35,0-1.82-.05-.94-.11-1.41a3.53,3.53,0,0,1,0-.64,4.07,4.07,0,0,0,0-.63,18.25,18.25,0,0,0-.09-2.36,6.14,6.14,0,0,1,.14-1.6s.06-.19,0-.58l0-.6c0-.16,0-.45,0-.85s0-.74,0-1a7.44,7.44,0,0,1,.08-.85c0-.19.05-.8.05-1.82,0-.18,0-.44,0-.78s0-.65,0-.93.05-.55.09-.8a6,6,0,0,0,0-.74c0-.25,0-.54,0-.85s0-.58,0-.77a2.43,2.43,0,0,1,.09-.6,20.33,20.33,0,0,0-.05-3.27,12.33,12.33,0,0,1,0-2.43,5.51,5.51,0,0,0,0-1.91s.07,0,.16,0a.31.31,0,0,0,.18-.06.3.3,0,0,0-.12-.13.64.64,0,0,0-.18-.06l-.12,0a22.36,22.36,0,0,0,0-3.16c0-.15,0-.28,0-.39s0-.22,0-.31a.41.41,0,0,1,0-.25.41.41,0,0,0,.05-.17.17.17,0,0,1,.08-.14l.12-.09s.07,0,.17-.06l.2-.05.28,0a1.93,1.93,0,0,0,.32-.05,10.87,10.87,0,0,1,1.83,0h1.62a1,1,0,0,0,.39,0,1,1,0,0,0,.37-.15,1.41,1.41,0,0,1,.53.49,5,5,0,0,1,0,1.32A6.21,6.21,0,0,0,271,31a22,22,0,0,1,.05,2.69q0,.15-.06.42c0,.18,0,.34-.05.49a2.89,2.89,0,0,0,0,.4c0,.08,0,.3-.07.68a7,7,0,0,0-.07.88q0,.2,0,.54t0,.63a2.18,2.18,0,0,0,.06.52c.05,0,.05.2,0,.48s-.05.43-.05.48v5c0,.24.05.75.1,1.53s.08,1.37.08,1.79a23.87,23.87,0,0,1-.14,3,7.54,7.54,0,0,0,.05,2.6,1.43,1.43,0,0,1,0,.55,2.35,2.35,0,0,0-.13.64,5.2,5.2,0,0,0,0,.78q0,.45,0,.63c0,.53,0,1.33,0,2.39s0,1.86-.05,2.39a15.38,15.38,0,0,0,0,1.92c0,.37,0,.61,0,.73s0,.33-.05.65a2.14,2.14,0,0,1-.58,1.35,1.89,1.89,0,0,0-.31.49,3.06,3.06,0,0,1-.83.74,3.3,3.3,0,0,1-.84.42c-.31.1-.67.2-1.07.3l-.91.23a8.9,8.9,0,0,1-3.56.27,4.82,4.82,0,0,1-1.22-.27,2.59,2.59,0,0,0-.59-.1,2.2,2.2,0,0,1-.64-.12,19.25,19.25,0,0,1-2.33-1,2,2,0,0,1-.34-.23l-.28-.24-.31-.36-.25-.3A8.93,8.93,0,0,1,255.41,63.06Z" transform="translate(-8.74 -1.63)"/><path class="cls-1" d="M274.54,28.2a1.63,1.63,0,0,0,.31-.14l.37.08.41.07H276a1,1,0,0,0,.39-.07s.07,0,.2,0l.2,0,1.43-.09a4,4,0,0,1,1.73.14l.14-.18a1.06,1.06,0,0,1,.62.3,1.5,1.5,0,0,1,.47.61,2,2,0,0,1,.13.67,2.56,2.56,0,0,0,0,.83,9.12,9.12,0,0,0,.19,1c.09.36.15.62.18.8.07.74.11,1.19.11,1.34a6.93,6.93,0,0,0,.33,1.62,7,7,0,0,1,.33,1.6,9.94,9.94,0,0,0,.42,2c.24.86.39,1.46.45,1.78,0,.15.05.46.09.94s.09.84.13,1.11.18.87.3,1.55.25,1.28.37,1.81.25,1,.4,1.51a7.5,7.5,0,0,1,.26,1.18c.08.52.14.88.19,1.07a3.07,3.07,0,0,1,.11.31,1.68,1.68,0,0,0,.11.31,16.11,16.11,0,0,0,.08-2.21,10.13,10.13,0,0,0-.13-2.1,1.64,1.64,0,0,0,.13-.85,3.74,3.74,0,0,1,0-.84c0-.14,0-.38,0-.74a2.49,2.49,0,0,1,.11-.82,1,1,0,0,1-.18-.71c.05-1.69.05-3.39,0-5.08,0-.2,0-1,0-2.39a11.94,11.94,0,0,0-.1-2.39,9.16,9.16,0,0,1,0-1.24,11.24,11.24,0,0,0,0-1.29,2.2,2.2,0,0,0-.48-1.34c.22,0,.35-.15.4-.44,2.31,0,4.09,0,5.33.13a2,2,0,0,1,.23,1.53,4.41,4.41,0,0,0-.09,1.07,23.07,23.07,0,0,0-.05,2.36c0,1.33,0,2.14.05,2.42a11.91,11.91,0,0,1-.09,1.23,18.28,18.28,0,0,0,0,2.6c0,.15,0,.42,0,.8s0,.68.05.89v.79a7.56,7.56,0,0,1-.08.88.75.75,0,0,0,0,.35,1.27,1.27,0,0,1,.06.3c0,1.58,0,2.77,0,3.55a23.65,23.65,0,0,0,.14,3,4.15,4.15,0,0,1,0,1.67,3.1,3.1,0,0,0-.06.82,4.88,4.88,0,0,1,0,.83l-.09,1.73c0,.15,0,.41-.07.78s0,.62,0,.76,0,.38,0,.73.07,1.22.07,2.18,0,1.69.06,2.16a.84.84,0,0,1,0,.27,1,1,0,0,0-.05.17,20.73,20.73,0,0,1,.26,2.8c0,1.22.08,1.92.1,2.1a.91.91,0,0,1-.7.48,1.69,1.69,0,0,1-.88,0l-.28-.07a1.3,1.3,0,0,0-.32-.06,1.1,1.1,0,0,0-.51,0,7.27,7.27,0,0,1-1.72-.18.71.71,0,0,0-.51,0,.31.31,0,0,0-.15.07.48.48,0,0,1-.2.07,1.25,1.25,0,0,1-.56-.09.63.63,0,0,0-.34,0q-.24,0-.3,0a1.89,1.89,0,0,1-.25-.38l-.15-.22a1.31,1.31,0,0,0,.13-1,6.82,6.82,0,0,1-.3-1.55,11.64,11.64,0,0,0-.19-1.36c0-.15-.11-.43-.23-.84a6.13,6.13,0,0,1-.24-.94c-.06-.27-.18-.74-.36-1.4a14.64,14.64,0,0,1-.37-1.56,15.72,15.72,0,0,0-.41-1.8,15.14,15.14,0,0,1-.41-1.67c-.12-.85-.2-1.51-.23-2a5.38,5.38,0,0,0-.26-1.36,19.44,19.44,0,0,1-.69-2.74c0-.22-.13-.53-.24-.94S280,46.33,280,46a3.9,3.9,0,0,1-.08-1,.76.76,0,0,0-.16-.29,3.92,3.92,0,0,0,0,1.34,6.37,6.37,0,0,1,0,1.53,1.49,1.49,0,0,0,.09.82,1.13,1.13,0,0,1-.14,1.21c.17,0,.25.16.25.4s0,1.4-.11,3.22c0,.25,0,.62.07,1.11a9.45,9.45,0,0,1,.08,1.09c0,.11,0,.31,0,.62a4.21,4.21,0,0,0,0,.7q.09,1,.09,3.09c0,.87,0,1.53-.05,2a14.41,14.41,0,0,0,.14,3.15.79.79,0,0,0,0,.2c0,.09,0,.16,0,.21s0,.12,0,.23a1,1,0,0,0,0,.25c0,.06,0,.14,0,.23a.56.56,0,0,0,.07.23.85.85,0,0,0,.14.19.93.93,0,0,1-.91.6h-1.56c-.17,0-.55,0-1.12.07a8.61,8.61,0,0,1-1.32,0,1.51,1.51,0,0,1-.52-.14.69.69,0,0,1-.22-.42,4.17,4.17,0,0,1,0-2v-4.4a2.2,2.2,0,0,0,0-.6.39.39,0,0,1-.08-.2.48.48,0,0,1,0-.18l.07-.17a.38.38,0,0,0,0-.14,2.2,2.2,0,0,0-.08-.23.91.91,0,0,1,0-.22,9.84,9.84,0,0,1,.09-1.18,5.44,5.44,0,0,0-.05-.55,5.08,5.08,0,0,1,0-.56c0-.28,0-.79.09-1.51a11.11,11.11,0,0,0,0-1.67c-.06-.46-.1-1.11-.12-2s-.06-1.45-.1-1.82a8.6,8.6,0,0,1,0-1.59,13.54,13.54,0,0,0,.07-1.46l0-.89c0-.59,0-.89,0-.89a.61.61,0,0,1,0-.32,1.08,1.08,0,0,0,.06-.28c0-.36,0-.93-.06-1.72a14.63,14.63,0,0,1,0-1.82c0-.07,0-.18,0-.32a2.5,2.5,0,0,1,0-.32c-.06-.49-.08-1.58-.08-3.27a6.17,6.17,0,0,0-.09-1.38.55.55,0,0,1,0-.4,6.1,6.1,0,0,0,.1-1.58c0-.92,0-1.45,0-1.58a3.48,3.48,0,0,0-.07-.74,1.75,1.75,0,0,1,0-.75,3,3,0,0,0,.1-.81A2.63,2.63,0,0,1,274.54,28.2Z" transform="translate(-8.74 -1.63)"/><path class="cls-1" d="M293.65,33.54a1.22,1.22,0,0,1-.58-1.47,5.23,5.23,0,0,0,0-2,1.86,1.86,0,0,1,0-.52c0-.26,0-.41,0-.44a1.06,1.06,0,0,1-.12-.82h2.21a1.43,1.43,0,0,0,.36-.1.9.9,0,0,1,.46-.08,3.84,3.84,0,0,0,.71.05,4.57,4.57,0,0,1,.78.08.26.26,0,0,0,.14,0l.12-.08a.45.45,0,0,0,.07-.07l.45.23c.13-.15.42-.2.87-.14s1.2,0,2.13-.07,1.6-.11,2-.11c1.25,0,2.19,0,2.83,0s1.38,0,1.78,0a.75.75,0,0,1,.43.49.63.63,0,0,1,0,.51,2.06,2.06,0,0,0-.1.93c0,.54,0,.85,0,.94a23.79,23.79,0,0,0,.05,2.4.18.18,0,0,1-.13.12.75.75,0,0,1-.23,0,.49.49,0,0,0-.2,0l-.7,0c-.41,0-.61,0-.61,0a.8.8,0,0,0-.41-.05,3.21,3.21,0,0,0-.39.05l-.37.07-.34.08a1.3,1.3,0,0,1-.55,0,1.85,1.85,0,0,0-.53,0,1.08,1.08,0,0,0-.53.21,5.35,5.35,0,0,1,.05,1.83,8.16,8.16,0,0,0-.09,2c0,.19,0,.48,0,.87s0,.67,0,.87a.55.55,0,0,1-.17.35l.26.14a.78.78,0,0,0,0,.77,3.76,3.76,0,0,1,.09,1.09c0,.09,0,.4-.11.92a4.74,4.74,0,0,0-.07,1.17.38.38,0,0,1-.08.16.42.42,0,0,1-.1.13c.09.09.13.15.13.18a22.3,22.3,0,0,0,.06,2.45c.07,1.07.09,1.88.08,2.42a9.87,9.87,0,0,0-.09,1.83,8.09,8.09,0,0,1-.05,1.18,1,1,0,0,0,0,.32c0,.13,0,.26,0,.41a2.16,2.16,0,0,1,0,.31,4.25,4.25,0,0,1,0,.79c0,.34,0,.55,0,.64a18.67,18.67,0,0,0,.18,2.69c-.09.06-.12.18-.08.35a.43.43,0,0,1-.06.4,1.26,1.26,0,0,1,.1.77,7.32,7.32,0,0,0,0,.79,4.77,4.77,0,0,1,0,.71,3.77,3.77,0,0,0,0,.72,1.39,1.39,0,0,1-.05.44c-.13.31-.1.53.09.65a11.07,11.07,0,0,0,0,2.31c0,.15,0,.39,0,.72a5.89,5.89,0,0,0,0,.87,3.24,3.24,0,0,0,.16.7.56.56,0,0,1-.32.29.86.86,0,0,1-.42,0,1,1,0,0,0-.42,0,2.34,2.34,0,0,1-1.4,0,1.34,1.34,0,0,0-.56.08l-.26-.17a3.17,3.17,0,0,1-2.32-.18,2.07,2.07,0,0,1-.19-1.17,2.11,2.11,0,0,0-.18-1.17,17.55,17.55,0,0,0,0-2.44c0-.26,0-.65.07-1.19s.06-1,.06-1.24,0-.32,0-.58,0-.46,0-.62a4.59,4.59,0,0,1,0-.59,2.42,2.42,0,0,1,.16-.63l-.05-.16a.6.6,0,0,1-.06-.24c.06-.64.12-2,.2-4,0-.28,0-.78,0-1.49a10.87,10.87,0,0,1,0-1.47,5.34,5.34,0,0,0-.05-1.13,1.8,1.8,0,0,1-.05-.76,7.51,7.51,0,0,0,0-.8,8.74,8.74,0,0,1,0-1.49l0-1.51q0-.5.09-1.38v-2c0-.29,0-.73,0-1.31s0-1,0-1.29a2.3,2.3,0,0,0,0-.52,1.08,1.08,0,0,1,.06-.57,1.51,1.51,0,0,0,0-.5,2.14,2.14,0,0,1,0-.5,10.56,10.56,0,0,1,.09-1.58,4.22,4.22,0,0,0,0-.68c0-.3,0-.51,0-.61a12.25,12.25,0,0,1-2.13.19A11.79,11.79,0,0,0,293.65,33.54Z" transform="translate(-8.74 -1.63)"/><path class="cls-1" d="M310.47,63.06a2.11,2.11,0,0,0,0-1.38,17.82,17.82,0,0,1-.09-3,16.8,16.8,0,0,0,0-2,.37.37,0,0,0-.09-.21.4.4,0,0,1-.09-.23,2.86,2.86,0,0,0,.27-1c0-.14,0-.54-.06-1.19a4.76,4.76,0,0,1,0-1.16,11.8,11.8,0,0,0,.05-3c0-.35,0-.6,0-.74s0-.4.05-.77.05-.63.06-.78a14.71,14.71,0,0,0,.05-3,7,7,0,0,1,0-1.54,33.39,33.39,0,0,0,0-3.51c0-.11,0-.26,0-.47s0-.36,0-.44a5.62,5.62,0,0,0-.06-1.21,3.3,3.3,0,0,1,0-1.17,6,6,0,0,0,.14-2c0-.34,0-.86,0-1.58a11.5,11.5,0,0,1,0-1.38,6.49,6.49,0,0,0-.14-1.64V29a2.7,2.7,0,0,1,.1-.51c.07-.25.11-.4.13-.46a.54.54,0,0,1,.55-.13,10.78,10.78,0,0,0,1.69.13c.21,0,.31,0,.31.23a.26.26,0,0,0,.14,0,.29.29,0,0,0,.08-.1l.05-.09.83.08a6.83,6.83,0,0,0,.84-.05c.43-.05.7-.07.8-.07a1.35,1.35,0,0,1,.22,1c0,.44-.08,1.06-.1,1.87s0,1.38-.08,1.69,0,.84,0,1.31,0,1,0,1.54,0,1,0,1.29v.74c0,.28,0,.8-.05,1.58s0,1.36,0,1.78,0,1.14.08,2.06,0,2.8-.13,5.59c0,.24,0,.72,0,1.46s0,1.3-.06,1.7a14.44,14.44,0,0,0,0,2.18,1.73,1.73,0,0,1,0,.29,1.1,1.1,0,0,0,0,.35.45.45,0,0,0,.12.27,1.31,1.31,0,0,0-.12.48c0,.17,0,.37,0,.61s0,.39,0,.47a33.66,33.66,0,0,0,0,3.53,3.37,3.37,0,0,1,0,1.25,1.24,1.24,0,0,0,0,.38,2.75,2.75,0,0,1,0,.29,4.65,4.65,0,0,0,3.7.46l.48-.51c0-.16,0-.62,0-1.37s0-1.35,0-1.82-.06-.94-.11-1.41a2.8,2.8,0,0,1,0-.64,4.07,4.07,0,0,0,0-.63,18.25,18.25,0,0,0-.09-2.36,6.14,6.14,0,0,1,.14-1.6s.05-.19,0-.58l0-.6c0-.16,0-.45,0-.85s0-.74,0-1a7.44,7.44,0,0,1,.08-.85c0-.19,0-.8,0-1.82a7.59,7.59,0,0,0,0-.78c0-.34,0-.65,0-.93a5,5,0,0,1,.09-.8,6,6,0,0,0,0-.74c0-.25,0-.54,0-.85s0-.58,0-.77a2.43,2.43,0,0,1,.09-.6,20.33,20.33,0,0,0-.05-3.27,11,11,0,0,1,0-2.43,5.51,5.51,0,0,0,0-1.91s.07,0,.16,0a.31.31,0,0,0,.18-.06.27.27,0,0,0-.13-.13.49.49,0,0,0-.17-.06l-.13,0a19.57,19.57,0,0,0,0-3.16q0-.23,0-.39c0-.11,0-.22,0-.31a.41.41,0,0,1,0-.25.38.38,0,0,0,0-.17.16.16,0,0,1,.09-.14.39.39,0,0,0,.11-.09.44.44,0,0,1,.18-.06l.2-.05.28,0a2.15,2.15,0,0,0,.32-.05,10.85,10.85,0,0,1,1.83,0h1.62a1,1,0,0,0,.39,0,1.11,1.11,0,0,0,.37-.15,1.57,1.57,0,0,1,.53.49,5.49,5.49,0,0,1,0,1.32,6.21,6.21,0,0,0-.06,1.28,22,22,0,0,1,.05,2.69q0,.15-.06.42c0,.18,0,.34-.05.49a3,3,0,0,0,0,.4c0,.08,0,.3-.06.68a7,7,0,0,0-.07.88q0,.2,0,.54a4.84,4.84,0,0,0,0,.63,1.77,1.77,0,0,0,.07.52s.05.2,0,.48-.06.43-.06.48v5c0,.24.05.75.1,1.53s.08,1.37.08,1.79a24.29,24.29,0,0,1-.13,3,7.8,7.8,0,0,0,0,2.6,1.3,1.3,0,0,1,.05.55,2.37,2.37,0,0,0-.14.64,5.38,5.38,0,0,0,0,.78q0,.45,0,.63c0,.53-.05,1.33-.05,2.39s0,1.86,0,2.39a15.38,15.38,0,0,0,0,1.92c0,.37,0,.61,0,.73s0,.33-.06.65a2.22,2.22,0,0,1-.19.77,2.15,2.15,0,0,1-.38.58,2.16,2.16,0,0,0-.32.49,3,3,0,0,1-.82.74,3.3,3.3,0,0,1-.84.42c-.32.1-.67.2-1.07.3l-.91.23a8.92,8.92,0,0,1-3.56.27,5,5,0,0,1-1.23-.27,2.48,2.48,0,0,0-.59-.1,2.2,2.2,0,0,1-.63-.12,19.35,19.35,0,0,1-2.34-1,2.51,2.51,0,0,1-.33-.23l-.28-.24c-.07-.07-.17-.19-.31-.36l-.26-.3A9,9,0,0,1,310.47,63.06Z" transform="translate(-8.74 -1.63)"/><path class="cls-1" d="M129.46,19.87a1.51,1.51,0,0,1,.4.62,1.91,1.91,0,0,1,0,.63,6.58,6.58,0,0,0,0,.86l-.43.08-.44.08a5.83,5.83,0,0,0-.7-.31c-.26-.11-.5-.21-.71-.32a2.39,2.39,0,0,1-.54-.35,2.32,2.32,0,0,0-.63-.35,6.57,6.57,0,0,0-1.49-.47c-.68-.16-1.23-.26-1.65-.32a5.05,5.05,0,0,1-1.13-.23l-.86-.32a5.26,5.26,0,0,0-1.1-.23,11.1,11.1,0,0,0-1.84,0c-.21,0-.51,0-.9,0s-.72,0-1,0c-1.31,0-2.35,0-3.14,0s-1.53,0-2.23,0-1.49,0-2.35,0-2,.12-3.49.28a13.46,13.46,0,0,0-1.49.15,7.46,7.46,0,0,0-1.49.32c-.15.1-.21.15-.15.15s0,.06-.08.16a3.16,3.16,0,0,1,1.25.67,4.79,4.79,0,0,1,.86,1,3.34,3.34,0,0,1,.44,1.37,14,14,0,0,1,.11,1.53,8.31,8.31,0,0,0,0,1.3,6.07,6.07,0,0,1-.11,1.45q-.17.78-.36,2.19c-.13.94-.26,1.89-.39,2.86s-.23,1.85-.31,2.66-.12,1.38-.12,1.69a20.32,20.32,0,0,1-.16,2.27c-.1.94-.21,1.91-.31,2.9s-.2,1.88-.27,2.67-.12,1.28-.12,1.48l-.39,6.43c-.11.78-.2,2-.28,3.6s-.12,3.3-.12,5,0,3.34.12,4.86a9.8,9.8,0,0,0,.51,3.13c-.1.11-.14.13-.12.08s0,0-.19.08c.15.42.31.89.47,1.41s.28,1,.39,1.49c.26.73.44,1.28.55,1.64a1,1,0,0,0,.86.71,4.71,4.71,0,0,0,0,.86c0,.11-.33.24-1.06.39a3.09,3.09,0,0,1-2.19-.31,7.78,7.78,0,0,1-3.37-2.51,21.38,21.38,0,0,1-1.8-3.37,17.72,17.72,0,0,1-1.41-5.37,52.35,52.35,0,0,1-.32-5.75c0-1.52,0-3,.16-4.47s.18-2.87.23-4.23l.47-6.51c.06-.15.11-.28.16-.39a.87.87,0,0,0,.08-.39c.16-1.31.32-2.76.51-4.35s.38-3.21.59-4.86.4-3.22.58-4.74a38,38,0,0,1,.67-3.92c.1-.57.2-1.17.27-1.8a2.32,2.32,0,0,0-.35-1.65q-1.33.24-1.8.36A4.12,4.12,0,0,0,95,22l-.24.08c-.31.11-.47.12-.47,0s-.18,0-.55.27c-.26.06-.69.16-1.29.32s-.9.36-.9.62a1.89,1.89,0,0,0-.75,0,5.26,5.26,0,0,0-.74.24l.39.23L82,27c-.68.31-1.1.49-1.26.55a1.18,1.18,0,0,1-.35.07.64.64,0,0,0-.31.12l-1.14.67a17.34,17.34,0,0,0-1.49,1.09,6,6,0,0,1-1,.75,4.13,4.13,0,0,1-1,.43,6.78,6.78,0,0,1-1.61.16L73,30.09a2.06,2.06,0,0,1-.51-.74,4.49,4.49,0,0,1-.24-1.26,2.54,2.54,0,0,1,.08-1.17,2.07,2.07,0,0,1,.47-.51c.26-.24.55-.47.86-.71s.61-.44.9-.62l.67-.43a14.8,14.8,0,0,1,2.9-1.45c.94-.34,1.93-.7,3-1.06.62-.21,1.25-.44,1.88-.71s1.25-.49,1.88-.7,1.32-.43,1.92-.67l1.92-.74c1.3-.42,2.61-.86,3.91-1.33a34.62,34.62,0,0,1,4-1.18c.94-.21,2-.42,3.25-.63s2.5-.39,3.8-.55,2.59-.27,3.84-.35a29.78,29.78,0,0,1,3.37,0l9.8,1,5.17,1.33,2.59,1.34C128.92,19.34,129.26,19.66,129.46,19.87Z" transform="translate(-8.74 -1.63)"/><path class="cls-1" d="M151.88,43.3a4.93,4.93,0,0,1,.62,3.05,13.42,13.42,0,0,1-.78,3.45c-.16.47-.48,1.25-1,2.35s-1,2.26-1.61,3.49S148,58,147.49,59s-.89,1.68-1.1,2c-.31.52-.55.92-.7,1.21a8.72,8.72,0,0,0-.4.82,5.73,5.73,0,0,1-.43.86,11.08,11.08,0,0,1-1,1.34,5.11,5.11,0,0,0-.31.59,2.36,2.36,0,0,1-.31.5,1.93,1.93,0,0,1-1.45.87A5.14,5.14,0,0,1,140,67a7.26,7.26,0,0,1-1.8-.82,8.39,8.39,0,0,1-1.33-1,20.7,20.7,0,0,1-1.37-2A12.52,12.52,0,0,1,134.32,61a10.15,10.15,0,0,1-.9-2.79,24.34,24.34,0,0,1-.35-3.09,25.81,25.81,0,0,1,.12-3.65,23.31,23.31,0,0,0,.11-3.56l-2,3.84q-.71,1.34-1,2l-.55,1.25c-.16.37-.33.78-.51,1.25s-.46,1.13-.82,2a4.13,4.13,0,0,1-1.77,2.2,11.11,11.11,0,0,0-1.76,1.17s-.08,0-.08,0,0,0-.08,0a3.29,3.29,0,0,1-1.21.67,2.29,2.29,0,0,1-1.37,0c-.73-.26-1.16-.41-1.29-.43a3.8,3.8,0,0,1-1-.75,2.26,2.26,0,0,0-.55-.39c-.06,0-.21-.16-.47-.47-.42-.52-.84-1-1.26-1.49a5.55,5.55,0,0,1-1-1.8,11.3,11.3,0,0,1-.58-3.17c-.08-1.28-.09-2.62,0-4s.15-2.76.31-4.11.34-2.51.55-3.45l.71-3.29a4.71,4.71,0,0,0,.15-2,7.46,7.46,0,0,1-.23-1.57,2.79,2.79,0,0,1,1.72-.67,6.35,6.35,0,0,1,2.39.24,4.69,4.69,0,0,1,2.12,1.29,3.36,3.36,0,0,1,.82,2.59,15.08,15.08,0,0,1-.35,2.94q-.36,1.68-.75,4t-.66,5.37a64.17,64.17,0,0,0-.2,7c.42.06.64,0,.67-.08s.17-.26.43-.47c.1.16.18.11.23-.15s.18-.34.39-.24a14.07,14.07,0,0,1,.91-1.21,6.26,6.26,0,0,0,.82-1.37l.7-1.45q.31-.67.63-1.53c.31-.78.57-1.4.78-1.84s.41-.85.59-1.22.39-.75.63-1.17l.9-1.65c.36-.78.81-1.77,1.33-3s1.06-2.4,1.61-3.6,1.08-2.27,1.6-3.21a4.78,4.78,0,0,1,1.34-1.73,11.34,11.34,0,0,0,1.13.94,2.29,2.29,0,0,0,.51.28,1.58,1.58,0,0,1,.28.08,3.32,3.32,0,0,1,.51.27,3.42,3.42,0,0,0,.27.27,3.25,3.25,0,0,0,.35.28,5.56,5.56,0,0,0,.86.35,1.72,1.72,0,0,1,.79.59,5.67,5.67,0,0,1,1,1.41A2.6,2.6,0,0,1,142,40a9.28,9.28,0,0,1-.31,1.68,25.62,25.62,0,0,0-.51,3L140.36,51a23.4,23.4,0,0,0-.12,3.13,25.13,25.13,0,0,1-.12,3.13c-.1.89-.17,1.69-.19,2.39a10.89,10.89,0,0,0,.19,2.39l.31,1.1c.16.11.23.15.2.12s.09,0,.35,0l.24-.55a3.12,3.12,0,0,1,.47-.82c.15-.19.36-.43.63-.75a28.79,28.79,0,0,0,2-3.52c.73-1.47,1.45-3,2.16-4.47s1.36-2.91,2-4.19a22.24,22.24,0,0,1,1.37-2.63q.47-.85.9-1.8A2.36,2.36,0,0,1,151.88,43.3Z" transform="translate(-8.74 -1.63)"/><path class="cls-1" d="M173,64.34a.89.89,0,0,1,.26-.21,3.07,3.07,0,0,0,.34-.38l.71-1a12,12,0,0,1,.74-1l.39-.86.39-.63a4.06,4.06,0,0,0,.28-.51l0,0,.49-1.11A9.79,9.79,0,0,1,172,62.49a1.47,1.47,0,0,1-.47.1,1.66,1.66,0,0,1-.32,0,1.87,1.87,0,0,1-.35,0,1.68,1.68,0,0,1-.91-.4,14.58,14.58,0,0,1-1.22-1.1,12.14,12.14,0,0,1-1.6-2.15c-.61-1-1.19-2-1.77-3.13s-1.09-2.21-1.56-3.26-.81-1.88-1-2.5a4.68,4.68,0,0,0,.7-.95c.21-.36.45-.73.71-1.09l8.07-10.74c.26-.31.44-.44.55-.39s.28,0,.55-.31a10.16,10.16,0,0,0,.66-.94c.34-.52.56-.89.67-1.1a1.5,1.5,0,0,0-.59-1.61c-.55-.44-1-.82-1.37-1.13a2.77,2.77,0,0,0-.55-.28,3.07,3.07,0,0,0-.55,0L169,34.68a6.89,6.89,0,0,1-.71.78c-.36.37-.76.77-1.17,1.21l-1.18,1.26a11.25,11.25,0,0,0-.78.9c-.16.31-.45.78-.86,1.41a4.18,4.18,0,0,1-1,1.18l-2.35,3.44-.63-1.56c-.11-.42-.18-.73-.24-.94a5.57,5.57,0,0,0-.31-.87l-2-5.17a6,6,0,0,1-.43-1.33,5.57,5.57,0,0,0-.35-1.18,4.85,4.85,0,0,0-.59-1,3.1,3.1,0,0,0-1.14-.87l-2.5-.94a.55.55,0,0,0-.4,0,.85.85,0,0,1-.62-.08l-2.9,1.26a3.93,3.93,0,0,0,.12.51.24.24,0,0,0,.11.16.19.19,0,0,1,.12.11,2.36,2.36,0,0,1,.12.39,4.74,4.74,0,0,1,.23,1.65,3.63,3.63,0,0,0,.16,1.33c.26-.26.38-.48.35-.66a8.87,8.87,0,0,1,0-.91,6.29,6.29,0,0,1,.63,1.49c.26.79.54,1.65.82,2.59s.56,1.84.83,2.7.47,1.51.62,1.92l3.22,8.31L148.58,63.9c-.41.63-.84,1.32-1.29,2.08a4.26,4.26,0,0,0-.51,2.63c.11.1.16.11.16,0s.08,0,.23.35c.06.1,0,.23-.08.39a3.74,3.74,0,0,1,.75.16c-.08,0-.09,0,0,.15a1.7,1.7,0,0,0,.39.11l.16.29a5.49,5.49,0,0,0,.59.23l.66-.08c.21,0,.58-.47,1.1-1.25s1.07-1.67,1.64-2.67,1.11-1.94,1.61-2.86.85-1.55,1.06-1.92.38-.7.67-1.17.6-1,.94-1.49.66-1,1-1.45a7.89,7.89,0,0,1,.78-1l.94,1.25a7.72,7.72,0,0,0,.7,1.1l1.81,2.12c.31.26.55.47.7.62s.3.29.43.4l.43.31.71.47a7.93,7.93,0,0,0,1.14.71l1.37.54a14.06,14.06,0,0,0,4.93.87,2.29,2.29,0,0,0,1.22-.32Z" transform="translate(-8.74 -1.63)"/><path class="cls-1" d="M193.47,4.38a22.59,22.59,0,0,1,3.76-.23,15.57,15.57,0,0,0,4-.41,6.36,6.36,0,0,0,3.32.37,1.1,1.1,0,0,1,.31,1.49l-1.22,3.23c-.15.45-.45,1.45-.89,3s-.82,2.72-1.15,3.54a2.3,2.3,0,0,0-.28.75c-.06.29-.11.61-.16.95s-.08.62-.11.8c-.18.81-.41,1.67-.68,2.56s-.59,1.89-.95,3-.64,1.94-.82,2.52a27.49,27.49,0,0,0-1.09,3.81,6.44,6.44,0,0,1-.54,1.72,8.17,8.17,0,0,0-.59,1.54,37.76,37.76,0,0,1-1.68,6.45c-.88,2.57-1.36,4-1.45,4.4-.13.94-.31,1.91-.55,2.91s-.56,2.14-1,3.42-.65,2.16-.77,2.61a.63.63,0,0,0,.86.36,1.87,1.87,0,0,1,1.31,0,.35.35,0,0,0,.3.05l.29-.09a3.12,3.12,0,0,1,.87,0c.3.22,1.12.19,2.45-.09a6,6,0,0,1,1,0,3.18,3.18,0,0,0,1-.07,2,2,0,0,0,.23-.86,3.08,3.08,0,0,1,.22-1,10,10,0,0,1-.36-2.13q0-3.9.18-11.89a1.64,1.64,0,0,1,.05-.34,1.45,1.45,0,0,0,0-.3l.27-.31q2.06.09,6,.09a4.52,4.52,0,0,0,3,0,2.46,2.46,0,0,1,.73-.09,1.94,1.94,0,0,1,.59.11.26.26,0,0,1,.14.25.57.57,0,0,0,.09.32,2.47,2.47,0,0,0,0,.36,3.12,3.12,0,0,1,0,.36,9.17,9.17,0,0,0,0,1.36,5.24,5.24,0,0,1,0,1.37,3,3,0,0,0,.13,2.31q-.27,3-.4,10a2.78,2.78,0,0,0,.95.2,4.84,4.84,0,0,0,.77,0,6.35,6.35,0,0,0,.93-.16,5.93,5.93,0,0,1,.79-.13,3.44,3.44,0,0,0,.5.18l.53.16a1.07,1.07,0,0,1,.36.2.64.64,0,0,1,.2.28,2,2,0,0,1,.14.86,3,3,0,0,1-.11.5c0,.12-.06.19,0,.22a3.16,3.16,0,0,1,.18,2.14,12.62,12.62,0,0,0-.24,1.84c-.05.65-.07,1.41-.07,2.29s0,1.51,0,1.9a1.72,1.72,0,0,1-.11.39,3.74,3.74,0,0,0-.16.47,5.47,5.47,0,0,1-1.88.21,8.18,8.18,0,0,0-2,.16c-.06.66-.09,2.77-.09,6.31v6.62c0,.46,0,1.11,0,1.95s0,1.64,0,2.36,0,1.43-.09,2.09c-1.24.06-3,.08-5.15,0s-3.87,0-5,0a2.2,2.2,0,0,1-.54-.11l-.55-.16a10.72,10.72,0,0,1-.18-3.36q.09-2.76.09-3.27c0-.72,0-1.79,0-3.2s0-2.44,0-3.11c0-.3,0-1.41,0-3.33a11.16,11.16,0,0,0-.2-3.25,1.18,1.18,0,0,0-.2-.22.29.29,0,0,0-.1-.05l-.11.07a.87.87,0,0,1-.18.11,5.21,5.21,0,0,1-2,.43,15.06,15.06,0,0,1-2.13,0l-.95-.06a15.66,15.66,0,0,1-4.75.27q-3.6-.14-4.74-.09l-.72,0c-.43,0-.82,0-1.18,0a1.9,1.9,0,0,0-.73.09c-.15.15-.49.19-1,.11a3.18,3.18,0,0,0-1.11,0,2.05,2.05,0,0,1-.43-1.18,2.85,2.85,0,0,0-.39-1.23l.36-1.13a2,2,0,0,0-.25-.7,1.38,1.38,0,0,1-.11-1,1.66,1.66,0,0,0,.18-.75,4.66,4.66,0,0,0-.09-.86,4.24,4.24,0,0,1-.09-.7c0-.31,0-.75,0-1.34s-.05-1-.05-1.34a7.1,7.1,0,0,1,.64-3.36,32.94,32.94,0,0,0,1.22-3.11q.54-1.61,1.23-4.08c.45-1.65.75-2.72.9-3.2q2.28-7.8,4-14.52a1.27,1.27,0,0,1,.09-.55q1.81-4.71,3.54-10.62l1.22-4.81a10,10,0,0,1,.57-1.79c.26-.62.57-1.32.93-2.09S193.29,4.8,193.47,4.38Z" transform="translate(-8.74 -1.63)"/><g id="path3248"><path d="M34.59,8.07a12.22,12.22,0,0,0-1.27,5.37c-.17,9.18.41,7.77,0,12a19.68,19.68,0,0,1-2.2,6.09c-1.31,2.6-2.88,5.18-3.86,6.7A102.41,102.41,0,0,0,21.8,47.1,18,18,0,0,0,20,52.31a25.34,25.34,0,0,0-.16,4.08c-1.07.91-1.61,2.46-2.7,3.63-.7.76-2.07,1-3.58,1.28-1.3.25-2.67.75-3.15,1.51a1.38,1.38,0,0,0-.14.27c-1.09,2.08.25,5.65-.41,8.29a15.56,15.56,0,0,0-.76,3.15,3.14,3.14,0,0,0,.47,1.63A4.32,4.32,0,0,0,12,77.69c1.13.39,2.58.72,4.26,1.11l.58.14c.77.18,1.53.36,2.29.52l1,.19A18.87,18.87,0,0,1,24.54,81c.69.27,1.46.55,2.27.8a11.21,11.21,0,0,0,5.1.55,5.29,5.29,0,0,0,2.36-1,8.88,8.88,0,0,0,1.95-2.11,7.16,7.16,0,0,0,.37-.65,5.72,5.72,0,0,0,.24-.57,3.5,3.5,0,0,0,.17-.55c.67-.34,2.35-.84,6.32-.88a22.31,22.31,0,0,1,10,2.1v0c0,.28.12.54.19.79a4.59,4.59,0,0,0,.47,1,4.82,4.82,0,0,0,.79.93,5.76,5.76,0,0,0,1.28.87,7.49,7.49,0,0,0,1.53.59,8.62,8.62,0,0,0,1.65.25A9.24,9.24,0,0,0,61,83a6.06,6.06,0,0,0,2.46-.87,11.72,11.72,0,0,0,1.73-1.37h0a12.76,12.76,0,0,1,1.12-1l.76-.57.75-.58c.6-.45,1.21-.93,1.81-1.39s1.31-.94,2-1.4c.55-.35,1.18-.75,1.78-1.15s1.26-.83,1.87-1.24c1.09-.74,2.6-1.64,3.16-2.82a2.38,2.38,0,0,0,.27-1.18c-.1-1.34-1.7-2.56-3.13-3.78a8.12,8.12,0,0,1-1.75-1.78,5.81,5.81,0,0,1-.75-1.74c-.28-1.47-.28-2.56-1-3.53a2.69,2.69,0,0,0-2.2-1.26l-.42-.06a16.13,16.13,0,0,0,.66-5.82c-.27-4.5-3.24-9.62-6.6-14.8-2-3.25-4.08-6.31-5.39-8.45a16,16,0,0,1-1.49-3c-.43-1.2-.59-4.1-.63-8.78C56.2,9.34,54,6,51.25,4s-6.67-2-8.11-1.91h0a11.72,11.72,0,0,0-8.55,6Z" transform="translate(-8.74 -1.63)"/><path class="cls-1" d="M59.63,83.49h-.41a8.34,8.34,0,0,1-1.73-.26,8,8,0,0,1-1.61-.61,6,6,0,0,1-1.36-.94,5,5,0,0,1-.86-1,5.66,5.66,0,0,1-.51-1.12c0-.21-.11-.41-.15-.61a22.56,22.56,0,0,0-9.67-2c-3.67,0-5.31.46-6,.76a3.09,3.09,0,0,1-.14.43,5.18,5.18,0,0,1-.26.6,5.09,5.09,0,0,1-.38.68,9.5,9.5,0,0,1-2,2.21A5.62,5.62,0,0,1,32,82.75a11.35,11.35,0,0,1-5.27-.56c-.7-.21-1.45-.48-2.3-.81A18.6,18.6,0,0,0,20.11,80L20,80l-.9-.18c-.56-.11-1.12-.24-1.69-.37l-1.19-.28A43.82,43.82,0,0,1,11.89,78a4.46,4.46,0,0,1-2.64-1.71,3.55,3.55,0,0,1-.51-1.81,8,8,0,0,1,.46-2.18c.11-.35.22-.7.31-1.06a12.45,12.45,0,0,0,.06-3.82c-.13-1.71-.26-3.32.38-4.55a1.26,1.26,0,0,1,.17-.32c.65-1,2.58-1.5,3.38-1.66,1.45-.26,2.76-.51,3.37-1.17a11.15,11.15,0,0,0,1.22-1.69,8.94,8.94,0,0,1,1.38-1.84,25.15,25.15,0,0,1,.17-4,18.11,18.11,0,0,1,1.83-5.32,64.57,64.57,0,0,1,4-6.64L27,38c.51-.79,2.29-3.6,3.84-6.67A19.09,19.09,0,0,0,33,25.39a21.7,21.7,0,0,0,0-3.91c-.08-1.29-.19-3.25-.1-8a12.59,12.59,0,0,1,1.3-5.53A12.15,12.15,0,0,1,43.1,1.68c.87-.08,5.32-.35,8.38,2C55,6.37,56.55,10.33,56.4,16.5c.05,5.08.23,7.59.61,8.64a15.81,15.81,0,0,0,1.47,2.94c.58,1,1.31,2.08,2.13,3.34,1,1.54,2.14,3.3,3.24,5.1,3.08,4.72,6.38,10.17,6.67,15A16.05,16.05,0,0,1,70,57a3,3,0,0,1,2.45,1.41,5.89,5.89,0,0,1,.89,2.72c0,.3.09.62.16,1a5.64,5.64,0,0,0,.7,1.62,7.93,7.93,0,0,0,1.61,1.63l.47.4c1.36,1.14,2.75,2.32,2.85,3.69a2.61,2.61,0,0,1-.31,1.38,8.05,8.05,0,0,1-2.9,2.71l-.38.25c-.61.41-1.26.85-1.88,1.25L72.2,76l-.37.23c-.71.47-1.39.93-2,1.39l-1.14.87-1.42,1.09-.76.58c-.38.28-.72.58-1.08.9a11.13,11.13,0,0,1-1.82,1.45,6.41,6.41,0,0,1-2.6.92A8.93,8.93,0,0,1,59.63,83.49Zm-5.94-4.9c.05.26.12.51.18.75a4.69,4.69,0,0,0,.43.94,4,4,0,0,0,.72.84,5.31,5.31,0,0,0,1.2.82,7.64,7.64,0,0,0,1.46.56,8,8,0,0,0,1.57.23,9.13,9.13,0,0,0,1.65-.08,5.75,5.75,0,0,0,2.31-.82,11.6,11.6,0,0,0,1.67-1.33c.4-.35.77-.69,1.17-1l.76-.57,1.42-1.09c.37-.3.76-.59,1.14-.88.63-.47,1.33-1,2.06-1.42l.36-.23,1.41-.91c.62-.4,1.26-.83,1.87-1.24l.38-.26a7.48,7.48,0,0,0,2.65-2.41,2,2,0,0,0,.23-1c-.07-1.05-1.35-2.13-2.58-3.16L75.34,66a8.41,8.41,0,0,1-1.83-1.87,6.6,6.6,0,0,1-.8-1.87c-.07-.35-.12-.68-.17-1a5,5,0,0,0-.75-2.39,2.31,2.31,0,0,0-1.94-1.11c-.15,0-.3,0-.44-.06l-.4-.08.11-.39a15.89,15.89,0,0,0,.65-5.69c-.28-4.63-3.53-10-6.55-14.63-1.1-1.8-2.24-3.55-3.24-5.1-.82-1.25-1.56-2.39-2.15-3.35a16.56,16.56,0,0,1-1.52-3.08c-.42-1.15-.61-3.64-.66-8.89C55.84,8.91,53.28,6,51,4.25,48.18,2.1,44,2.35,43.17,2.42a11.38,11.38,0,0,0-8.25,5.82h0a11.87,11.87,0,0,0-1.22,5.21c-.09,4.77,0,6.63.1,8a21.28,21.28,0,0,1-.06,4,19,19,0,0,1-2.23,6.23c-1.57,3.1-3.37,5.94-3.88,6.74l-1.5,2.28a63.61,63.61,0,0,0-4,6.57,17.23,17.23,0,0,0-1.76,5.1,25.45,25.45,0,0,0-.16,4v.18l-.14.12a7.55,7.55,0,0,0-1.37,1.79,10.92,10.92,0,0,1-1.3,1.8c-.77.84-2.21,1.11-3.73,1.39A4.8,4.8,0,0,0,10.74,63a1,1,0,0,0-.11.2c-.56,1.08-.44,2.59-.31,4.19a13.09,13.09,0,0,1-.08,4.06c-.1.38-.21.74-.32,1.1a7,7,0,0,0-.43,2A2.79,2.79,0,0,0,9.9,76a4,4,0,0,0,2.23,1.37c1.09.38,2.5.71,4.22,1.11l1.2.28c.55.13,1.1.26,1.66.37l.88.17.15,0a18.29,18.29,0,0,1,4.43,1.4c.83.32,1.56.57,2.25.78a10.56,10.56,0,0,0,4.92.54,5,5,0,0,0,2.2-.94,8.78,8.78,0,0,0,1.87-2,5.66,5.66,0,0,0,.57-1.14,2.3,2.3,0,0,0,.15-.49l0-.18.17-.09c.8-.39,2.57-.88,6.49-.91A22.21,22.21,0,0,1,53.5,78.37l-.14.27Z" transform="translate(-8.74 -1.63)"/></g><path id="path3250" class="cls-2" d="M16.57,61.35c-1.42.68-4.7.67-5.49,2-.88,1.49-.31,3.14-.31,5a12.68,12.68,0,0,1-.58,4.42c-.47,1.31-.63,1.78,0,2.93s3.58,1.7,7.53,2.64,2.69.25,7.1,2c2.73,1.06,6.58,2.35,9.08.42.93-.71,2.44-2.32,2.53-3.9a6.74,6.74,0,0,0-.25-2.45c-.72-1.94-2.16-2.77-3.53-4.79-2.5-3.77-5.17-7.35-7.3-10.48-1.49-2.22-2.71-2.76-3.73-2.59-3.16.56-2.14,3.41-5.09,4.81Z" transform="translate(-8.74 -1.63)"/><path id="path3252" class="cls-2" d="M56.49,58.13c-1.38,1-1.08,3.87-1.17,5.4-.12,2.33-.14,4.94-.22,6-.13,1.72-1.45,5.59-1.28,7.43s.29,2.9,1.43,3.94a7,7,0,0,0,5.68,1.47c2.5-.36,3.44-1.89,5.06-3.09s3.29-2.64,5.42-4a56.28,56.28,0,0,0,6.07-4.19c.49-.61.83-1.12.47-1.92A12,12,0,0,0,75,66c-3.55-2.92-2-5.62-3.5-7.06a2.42,2.42,0,0,0-1.31-.85c-2.84-.57-3.62.53-5.28.37a35.76,35.76,0,0,1-4.81-.26c-1.25-.15-2.7-.65-3.58-.09Z" transform="translate(-8.74 -1.63)"/><path id="path3254" class="cls-3" d="M33.32,35.92c-1.26,2.75-1.2,1.81-2.06,4.68-1.18,1.06-2.47,3.92-3.33,6.37a25.94,25.94,0,0,0-1.47,10.85c.27.3.5.58.76.86a18.53,18.53,0,0,0,2.91,2.58c2.71,2,4.62,3.12,5,4.45.51,1.78-.62,3-2,3.66,1,1,4.28,3.09,10.21,2.82a14.23,14.23,0,0,0,11.31-5.57c0-.78.11-2.08.14-3.48A24.33,24.33,0,0,1,55,59.41a3.88,3.88,0,0,1,.22-.68,2.51,2.51,0,0,1,2.14-1.44,5.63,5.63,0,0,1,1.42,0c.71-5.5.15-9.29-2.66-15.1a12.7,12.7,0,0,0-1.87-2.64,13.66,13.66,0,0,0-1.52-4.38A41.69,41.69,0,0,1,50.32,26a7.9,7.9,0,0,0-1.66,1c-.6.46-1.69,1.41-2.53,2a10.61,10.61,0,0,1-1.74,1,7.09,7.09,0,0,1-2.31.61c-2.24.12-3.31-.43-4.32-1.49-.44-.44-.75-.92-1.3-1.52a8.41,8.41,0,0,0-.91-.85c0,.3-1,6.51-2.23,9.25ZM50.19,25.49a0,0,0,0,0,0,0Zm-6.81-6a7.8,7.8,0,0,1,.34-3.13c.67-2.16,3.05-3.61,5.08-2.58s2.4,3.67,1.92,5.15a10,10,0,0,1-1.55,2.67c-.41-.16-.92-.35-1.57-.57a2.5,2.5,0,0,0,.94-1A2.82,2.82,0,0,0,48,16.56a2,2,0,0,0-2.94.87,3,3,0,0,0-.14,2.65c-.58-.22-1.07-.4-1.55-.55ZM36,14.34c1.89-.65,3,.91,3.49,3.17a6.28,6.28,0,0,1,.07,2l-.16.06-.73.33a3,3,0,0,0,.1-.47,2.82,2.82,0,0,0-1.35-2.91c-.89-.35-1.74.4-1.89,1.66a2.87,2.87,0,0,0,1.24,2.87l-.33.22c-.14.09-.28.2-.41.3a5.75,5.75,0,0,1-1.36-2.71c-.45-1.95,0-4.09,1.33-4.54Z" transform="translate(-8.74 -1.63)"/><path id="path3256" class="cls-4" d="M55.21,66.89A35.15,35.15,0,0,1,55.39,71c-.17,2.86-.1,6.67.88,7.87,1.79,2.24,4.18,2.16,7.28,1.07a25,25,0,0,0,4.8-2.49l.31-.18c-.94.72-1.8,1.41-2.65,2-1.62,1.2-2.56,2.73-5.06,3.1a6.9,6.9,0,0,1-5.67-1.48c-1.15-1-1.29-2.11-1.44-3.94a10.71,10.71,0,0,1,.3-2.71c.37-1.73.9-3.64,1-4.7,0-.55,0-1.51.08-2.64Z" transform="translate(-8.74 -1.63)"/><path id="path3258" class="cls-4" d="M9.9,73.69A3.5,3.5,0,0,0,11.44,76c1.4.79,5.91,1.58,10.51,2.4s6.25,2.4,9.57,1.58c6.44-1.58,3-7.65,3.44-7.5l.12,0a5.49,5.49,0,0,1,1.37,4.35c-.1,1.58-1.61,3.19-2.53,3.91-2.5,1.93-6.35.63-9.09-.42-4.41-1.71-3.16-1-7.1-2s-6.84-1.48-7.52-2.64a2.36,2.36,0,0,1-.31-2.07Zm24.38,7.67,0,0h0s0,0,0,0Z" transform="translate(-8.74 -1.63)"/><path id="path3260" class="cls-4" d="M57.25,57.89c-.31,7.78,3.08,9.3,6.82,5.9a27.89,27.89,0,0,0,2.52-3.5,3.86,3.86,0,0,0,.37-.66,10.56,10.56,0,0,1-1.3,1.77c-1.63,1.81-4.39,3-6.22,2.17-1.58-.72-2.17-3.8-2.1-5.69Z" transform="translate(-8.74 -1.63)"/><path id="path3262" class="cls-2" d="M35.34,25.89s0,.09,0,.12c.42.41.9.82,1.34,1.3s.93,1.16,1.34,1.54A4.27,4.27,0,0,0,40.61,30a7.42,7.42,0,0,0,5.29-1.44c.8-.53,1.93-1.51,2.58-2,1.08-.81,1.39-.74,1.71-1.15a3.42,3.42,0,0,0,.4-2,1.29,1.29,0,0,0-.66-.95,14.64,14.64,0,0,0-2.79-1.12L45,20.54h0a9.22,9.22,0,0,0-3.8-.9,5.24,5.24,0,0,0-1.78.4h0a17.47,17.47,0,0,0-2.69,1.58,6.71,6.71,0,0,0-1.8,1.76c-.25.39-.63,1.19-.27,1.64,0,0,.91.47,1.84,1a8.72,8.72,0,0,0,4.69,1.24,10.42,10.42,0,0,0,3.52-.9A20.76,20.76,0,0,0,48,24.28c.18-.12.53-.46.74-.57s.81,0,.77.16-.74.45-1,.65a25.27,25.27,0,0,1-3.63,2.28,12.58,12.58,0,0,1-3.65,1,6.86,6.86,0,0,1-2.7-.33,11.79,11.79,0,0,1-2.22-1c-.32-.18-.59-.32-1-.55Z" transform="translate(-8.74 -1.63)"/><path id="path3264" class="cls-4" d="M49.8,25.5a11.24,11.24,0,0,0-1.74,1.05,17.08,17.08,0,0,1-2.88,2,7.39,7.39,0,0,1-4.38.76c-.91-.19-1.15-.76-1.39-1.5l-.06-.11a7.18,7.18,0,0,1-.85-.23,10.9,10.9,0,0,1-2.22-1c-.28-.16-.56-.29-.93-.53,0,0,0,.09.06.12.42.41.9.82,1.33,1.3l.75.89,1.14,1.08a4.35,4.35,0,0,0,2,.75,7.42,7.42,0,0,0,5.29-1.44c.81-.53,1.93-1.51,2.59-2a10.51,10.51,0,0,1,1.42-.89ZM36.4,26a6.7,6.7,0,0,1,2-3.82c1.69-1.91,2.13-2.37,2.25-2.49a1.19,1.19,0,0,0-.26.05l-.58.14A13.79,13.79,0,0,0,37,21.37c-.13.08-.23.17-.36.25a6.71,6.71,0,0,0-1.8,1.76c-.25.39-.64,1.18-.27,1.64,0,0,.9.46,1.81,1Z" transform="translate(-8.74 -1.63)"/><path id="path3266" class="cls-5" d="M41.82,20.6c-.08-.07.8-.26,1.15,0s.33.48.23.6-1.14-.52-1.38-.61Z" transform="translate(-8.74 -1.63)"/><path id="path3268" class="cls-6" d="M42.81,70.33a16.43,16.43,0,0,0,11.92-5.9c0,.9-.08,1.68-.1,2.22a14.28,14.28,0,0,1-11.31,5.57c-5.94.25-9.19-1.82-10.21-2.82A4.42,4.42,0,0,0,34.79,68,13.06,13.06,0,0,0,42.81,70.33Zm12-6s.08-.11.13-.15A.93.93,0,0,1,54.81,64.31Z" transform="translate(-8.74 -1.63)"/><path id="path3270" class="cls-6" d="M44.18,15.49a5.6,5.6,0,0,1,3.72-.41,4.78,4.78,0,0,1,3,2.6,4.2,4.2,0,0,0-2.1-3.86,3.59,3.59,0,0,0-4.51,1.41l-.11.26Z" transform="translate(-8.74 -1.63)"/><path id="path3272" class="cls-6" d="M34.53,16.58a3,3,0,0,1,2.31-1.09,3.06,3.06,0,0,1,2.52,1.62c-.52-2-1.63-3.38-3.4-2.77h0a2.6,2.6,0,0,0-1.43,2.24Z" transform="translate(-8.74 -1.63)"/><path id="path3274" class="cls-6" d="M35.19,28.86a2.52,2.52,0,0,1,1.34,1.06,5.54,5.54,0,0,0,4.33,2.56c2.15.14,4.32-1.38,5.43-2.3a22.44,22.44,0,0,1,3-2.2,5.17,5.17,0,0,1,1.31-.46c-.1-.57-.2-1.1-.29-1.55a7.9,7.9,0,0,0-1.66,1c-.6.46-1.69,1.41-2.53,2a10.61,10.61,0,0,1-1.74,1,7.09,7.09,0,0,1-2.31.61c-2.24.12-3.31-.43-4.32-1.49-.44-.44-.75-.92-1.3-1.52a8.41,8.41,0,0,0-.91-.85C35.53,26.79,35.41,27.66,35.19,28.86Z" transform="translate(-8.74 -1.63)"/><path id="path3276" class="cls-7" d="M27.32,41.72A13.83,13.83,0,0,0,24,52.62c.32,2.6,1.89,4.66,3.58,6.45,0,0-1.13-.83-1.34-1-4.68-4-3.64-12,1-16.41C27.36,41.5,27.55,41.5,27.32,41.72Z" transform="translate(-8.74 -1.63)"/><path id="path3278" class="cls-5" d="M40.27,20.6c-.12-.18-.62-.08-.85,0s-.42.34-.33.51a.24.24,0,0,0,.25.12,1.4,1.4,0,0,0,.43-.29c.19-.15.44-.27.5-.34Z" transform="translate(-8.74 -1.63)"/><path id="path3280" class="cls-7" d="M58.14,40.74A13.24,13.24,0,0,1,62,50.45a21.84,21.84,0,0,1-1,4.65c-.67,2.4.56.64.85-.16a15.12,15.12,0,0,0,.8-5.13,12.36,12.36,0,0,0-4.45-9.09C58.08,40.62,58,40.57,58.14,40.74Z" transform="translate(-8.74 -1.63)"/><path id="path3282" d="M68,57.74a3.33,3.33,0,0,0,.15-.53c.18-1.85-3.44-2.26-6.26-2.16a12.26,12.26,0,0,0-2.88.36,2.14,2.14,0,0,0-1.66,1.87c-.23,1.77.29,5.48,2.06,6.3s4.6-.36,6.22-2.17A16.85,16.85,0,0,0,68,57.74Z" transform="translate(-8.74 -1.63)"/><path id="path3284" class="cls-7" d="M58.1,56.85c-.46.53,2.44.13,4.39.49,1.09.2,2,.82,2.68.84,2,.07,2.32-1.08.72-2C63.86,55.12,59.13,55.63,58.1,56.85Z" transform="translate(-8.74 -1.63)"/><path id="path3286" class="cls-7" d="M47.55,6.79c.31,1-.35,1.54.46,2,.58.31,1.17-.17,2.21,0,1.83.32,3.07,1.35,2.62-.29a5.35,5.35,0,0,0-1.6-2.13C49.85,5.12,48,4.26,46.93,4.86c-.54.31.27.84.62,1.93Z" transform="translate(-8.74 -1.63)"/><path id="path3288" class="cls-7" d="M55.2,28a2,2,0,0,0-.6-.87c-.52-.49-1.23-.84-1.61-.59-.72.43.07,2.45.65,2.66A1.17,1.17,0,0,0,55.2,28Z" transform="translate(-8.74 -1.63)"/><path id="path3290" class="cls-7" d="M38,18.89c-.08,0,0-.3-.37-.71s-.69-.43-.6-.73.61,0,.9.51.16,1,.07.93Z" transform="translate(-8.74 -1.63)"/><path id="path3292" class="cls-7" d="M48.05,19c-.11,0,0-.37-.43-.91s-.87-.56-.75-.94.79,0,1.13.67.15,1.23,0,1.18Z" transform="translate(-8.74 -1.63)"/></svg>