<?xml version="1.0" standalone="no"?>
<!DOCTYPE svg PUBLIC "-//W3C//DTD SVG 20010904//EN"
 "http://www.w3.org/TR/2001/REC-SVG-20010904/DTD/svg10.dtd">
<svg version="1.0" xmlns="http://www.w3.org/2000/svg"
 width="730.000000pt" height="730.000000pt" viewBox="0 0 730.000000 730.000000"
 preserveAspectRatio="xMidYMid meet">
<metadata>
Created by potrace 1.11, written by Peter Selinger 2001-2013
</metadata>
<g transform="translate(0.000000,730.000000) scale(0.100000,-0.100000)"
fill="#000000" stroke="none">
<path d="M3570 7112 c-158 -23 -348 -110 -485 -222 -197 -161 -312 -387 -340
-667 -9 -90 -8 -499 1 -703 4 -96 7 -195 7 -220 0 -84 -14 -240 -23 -265 -5
-14 -7 -25 -5 -25 3 0 -1 -17 -9 -37 -17 -45 -27 -77 -27 -80 1 -7 -77 -180
-126 -282 -107 -220 -243 -448 -498 -836 -261 -396 -389 -643 -441 -850 -4
-16 -8 -32 -9 -35 -1 -3 -5 -32 -9 -65 -5 -33 -10 -69 -12 -80 -3 -11 -5 -77
-5 -147 -1 -121 -2 -128 -26 -155 -14 -15 -55 -73 -91 -128 -60 -91 -91 -131
-131 -172 -20 -21 -80 -49 -136 -62 -75 -19 -87 -22 -120 -27 -16 -2 -40 -7
-52 -9 -13 -3 -25 -5 -28 -6 -10 0 -83 -28 -126 -47 -64 -30 -95 -62 -120
-123 -19 -47 -22 -72 -22 -184 1 -71 4 -189 8 -261 8 -144 0 -214 -40 -340
-77 -239 -17 -361 215 -437 64 -22 169 -51 220 -62 8 -2 56 -13 105 -25 50
-12 97 -23 105 -25 8 -2 33 -8 55 -14 22 -5 56 -13 75 -16 19 -3 42 -8 50 -10
8 -2 31 -7 50 -10 19 -3 42 -8 50 -10 8 -2 30 -7 48 -10 44 -7 168 -49 287
-96 17 -7 35 -13 40 -15 6 -2 48 -17 95 -34 310 -111 536 -111 699 -1 99 68
215 212 242 300 16 55 53 73 199 96 169 26 576 26 694 0 24 -5 65 -13 116 -21
53 -8 248 -69 326 -101 67 -28 70 -30 85 -79 24 -74 46 -112 97 -166 93 -100
242 -158 412 -162 150 -4 250 21 353 88 50 32 65 44 132 105 32 29 143 116
316 248 59 45 240 169 403 277 312 206 389 270 426 353 50 112 -3 209 -205
378 -200 166 -238 226 -271 422 -23 137 -48 198 -103 253 -37 37 -59 50 -102
59 -96 22 -89 14 -72 78 8 30 16 67 18 82 2 14 8 49 14 76 15 78 7 347 -13
440 -55 252 -199 560 -439 940 -38 60 -90 143 -116 183 -25 40 -50 80 -56 90
-15 26 -105 167 -222 345 -57 87 -103 159 -103 162 0 2 -17 30 -39 62 -56 85
-106 180 -140 264 -48 122 -59 232 -66 659 -6 327 -13 459 -31 540 -3 14 -8
36 -10 50 -52 286 -245 559 -480 677 -47 24 -182 68 -234 77 -19 3 -46 8 -60
11 -30 7 -265 12 -300 7z"/>
</g>
</svg>
